<?xml version="1.0" standalone="no"?>
<!DOCTYPE svg PUBLIC "-//W3C//DTD SVG 20010904//EN"
 "http://www.w3.org/TR/2001/REC-SVG-20010904/DTD/svg10.dtd">
<svg version="1.0" xmlns="http://www.w3.org/2000/svg"
 width="315.000000pt" height="315.000000pt" viewBox="0 0 315.000000 315.000000"
 preserveAspectRatio="xMidYMid meet">
<metadata>
Created by potrace 1.14, written by Peter Selinger 2001-2017
</metadata>
<g transform="translate(0.000000,315.000000) scale(0.100000,-0.100000)"
fill="#000000" stroke="none">
<path d="M1348 2185 c-1 -1 -45 -6 -95 -9 -51 -4 -103 -9 -115 -11 -13 -2 -45
-6 -73 -10 -450 -54 -860 -220 -996 -402 -190 -251 38 -512 587 -672 81 -24
281 -65 369 -76 33 -5 67 -9 75 -10 277 -37 698 -37 958 0 229 33 361 61 487
101 115 37 256 94 287 116 14 10 30 18 35 18 20 0 151 100 190 144 149 170
107 354 -117 506 -161 109 -490 225 -725 255 -28 4 -90 14 -125 20 -8 2 -49 6
-90 10 -41 4 -88 9 -105 12 -33 5 -541 13 -547 8z"/>
</g>
</svg>
